<svg width="720" height="520" viewBox="0 0 720 520" fill="none" xmlns="http://www.w3.org/2000/svg" role="img" aria-labelledby="title desc">
  <title id="title">Tabguard protected tab illustration</title>
  <desc id="desc">A browser tab with a lock confirmation panel.</desc>
  <rect x="56" y="76" width="608" height="368" rx="14" fill="#f7f5ef" stroke="#1c1b18" stroke-width="3"/>
  <path d="M56 124h608" stroke="#1c1b18" stroke-width="3"/>
  <path d="M88 101h104l28 23H88V101Z" fill="#c96f43" stroke="#1c1b18" stroke-width="3" stroke-linejoin="round"/>
  <circle cx="610" cy="100" r="8" fill="#1c1b18"/>
  <circle cx="582" cy="100" r="8" fill="#1c1b18"/>
  <rect x="112" y="168" width="254" height="24" rx="4" fill="#1c1b18"/>
  <rect x="112" y="214" width="312" height="15" rx="3" fill="#7f7b70"/>
  <rect x="112" y="246" width="238" height="15" rx="3" fill="#7f7b70"/>
  <rect x="410" y="168" width="168" height="168" rx="12" fill="#e6dac3" stroke="#1c1b18" stroke-width="3"/>
  <path d="M456 241v-30c0-25 17-44 39-44s39 19 39 44v30" stroke="#1c1b18" stroke-width="16" stroke-linecap="round"/>
  <rect x="444" y="229" width="100" height="74" rx="10" fill="#c96f43" stroke="#1c1b18" stroke-width="3"/>
  <circle cx="494" cy="263" r="9" fill="#1c1b18"/>
  <path d="M494 269v17" stroke="#1c1b18" stroke-width="7" stroke-linecap="round"/>
  <rect x="112" y="357" width="138" height="38" rx="7" fill="#1c1b18"/>
  <rect x="270" y="357" width="118" height="38" rx="7" fill="#f7f5ef" stroke="#1c1b18" stroke-width="3"/>
</svg>
